<svg width="21" height="21" xmlns="http://www.w3.org/2000/svg"><path d="M9.27 14.355c.355.356.765.534 1.23.534.465 0 .875-.178 1.23-.534.356-.355.534-.765.534-1.23 0-.465-.178-.875-.534-1.23-.355-.356-.765-.534-1.23-.534-.465 0-.875.178-1.23.534-.356.355-.534.765-.534 1.23 0 .465.178.875.534 1.23zm-1.395-6.48h5.25L10.5 4.02 7.875 7.875zm7.178 0h4.183c.246 0 .458.082.636.246.178.164.267.37.267.615a211.203 211.203 0 0 1-1.23 4.615 457.275 457.275 0 0 0-1.026 3.753c-.246.847-.807 1.271-1.682 1.271H4.8c-.875 0-1.436-.424-1.682-1.271L.902 8.982a.571.571 0 0 1-.04-.246c0-.246.088-.45.266-.615a.905.905 0 0 1 .636-.246h4.183l3.815-5.742c.164-.246.41-.37.738-.37s.574.124.738.37l3.815 5.742z" fill="currentColor" fill-rule="nonzero"/></svg>