<svg width="20" height="21" xmlns="http://www.w3.org/2000/svg"><path d="M15.75 13.125v1.764h-1.764v-1.764h1.764zm0-3.486v1.722h-1.764V9.64h1.764zm1.764 6.972V7.875H10.5v1.764h1.764v1.722H10.5v1.764h1.764v1.764H10.5v1.722h7.014zm-8.778-10.5V4.39H7.014V6.11h1.722zm0 3.528V7.875H7.014v1.764h1.722zm0 3.486v-1.764H7.014v1.764h1.722zm0 3.486V14.89H7.014v1.722h1.722zM5.25 6.111V4.39H3.486V6.11H5.25zm0 3.528V7.875H3.486v1.764H5.25zm0 3.486v-1.764H3.486v1.764H5.25zm0 3.486V14.89H3.486v1.722H5.25zm5.25-10.5h8.736v12.264H1.764V2.625H10.5v3.486z" fill="currentColor" fill-rule="nonzero"/></svg>