<svg width="20" height="21" xmlns="http://www.w3.org/2000/svg"><path d="M10.5 16.75l4.389-4.389h-2.625V8.875H8.736v3.486H6.111L10.5 16.75zm.615-12.879a.835.835 0 0 0-.615-.246.835.835 0 0 0-.615.246.835.835 0 0 0-.246.615c0 .246.082.458.246.636.164.178.369.267.615.267a.802.802 0 0 0 .615-.267.905.905 0 0 0 .246-.636.835.835 0 0 0-.246-.615zm5.496-.246c.465 0 .875.178 1.23.533.356.356.534.766.534 1.23v12.223c0 .465-.178.875-.533 1.23-.356.356-.766.534-1.23.534H4.388c-.465 0-.875-.178-1.23-.533-.356-.356-.534-.766-.534-1.23V5.388c0-.465.178-.875.533-1.23.356-.356.766-.534 1.23-.534H8.04a2.74 2.74 0 0 1 .943-1.271A2.46 2.46 0 0 1 10.5 1.86c.574 0 1.08.164 1.518.493.437.328.752.751.943 1.271h3.65z" fill="currentColor" fill-rule="nonzero"/></svg>