<svg width="20" height="20" xmlns="http://www.w3.org/2000/svg"><path d="M10.5 9.639h3.486v5.25H10.5v-5.25zM5.25 6.11h4.389V10.5H5.25V6.111zm5.25 0h3.486v2.625H10.5V6.111zm-5.25 5.25h4.389v3.528H5.25V11.36zm10.5 5.25V4.39H3.486V16.61H15.75zm3.486-8.736h-1.722v1.764h1.722v1.722h-1.722v1.764h1.722v1.764h-1.722v1.722c0 .465-.178.875-.534 1.23-.355.356-.765.534-1.23.534H3.486c-.465 0-.868-.178-1.21-.533-.341-.356-.512-.766-.512-1.23V4.388c0-.465.17-.875.512-1.23.342-.356.745-.534 1.21-.534H15.75c.465 0 .875.178 1.23.533.356.356.534.766.534 1.23v1.723h1.722v1.764z" fill="currentColor" fill-rule="nonzero"/></svg>