<svg width="20" height="21" xmlns="http://www.w3.org/2000/svg"><path d="M17.443 3C19.148 4.745 20 6.765 20 9.06c0 2.296-.852 4.276-2.557 5.94L16 13.63c1.21-1.368 1.814-2.932 1.814-4.69 0-1.759-.604-3.282-1.814-4.57L17.443 3zm-2.855 3C15.53 6.903 16 7.923 16 9.058c0 1.136-.47 2.116-1.412 2.942L13 10.606c.412-.49.618-1.025.618-1.606 0-.58-.206-1.116-.618-1.606L14.588 6zM3.374 14.938C4.984 14.312 6.526 14 8 14c1.474 0 3.009.306 4.605.918C14.202 15.53 15 16.331 15 17.32V19H1v-1.68c0-.99.791-1.784 2.374-2.383zM5.03 11.97C4.343 11.284 4 10.46 4 9.5c0-.96.343-1.784 1.03-2.47C5.715 6.342 6.54 6 7.5 6c.96 0 1.784.343 2.47 1.03.687.686 1.03 1.51 1.03 2.47 0 .96-.343 1.784-1.03 2.47C9.285 12.658 8.46 13 7.5 13c-.96 0-1.784-.343-2.47-1.03z" fill="currentColor" fill-rule="nonzero"/></svg>