<svg width="20" height="21" xmlns="http://www.w3.org/2000/svg"><path d="M15.75 13.986l1.764 1.764v.861H3.486v-.861l1.764-1.764V9.64c0-1.368.349-2.557 1.046-3.569.697-1.011 1.661-1.668 2.891-1.968v-.616c0-.355.124-.663.37-.923s.56-.39.943-.39c.383 0 .697.13.943.39s.37.568.37.923v.616c1.23.3 2.194.957 2.891 1.968.697 1.012 1.046 2.201 1.046 3.569v4.347zm-5.25 5.25c-.492 0-.91-.17-1.251-.512a1.655 1.655 0 0 1-.513-1.21h3.528c0 .465-.178.868-.534 1.21-.355.341-.765.512-1.23.512z" fill="currentColor" fill-rule="nonzero"/></svg>