<svg width="21" height="21" xmlns="http://www.w3.org/2000/svg"><path d="M18.633 18.367L15.965 15.7h-.547l-.193-.193c.708-.815 1.062-1.78 1.062-2.895 0-1.244-.43-2.3-1.287-3.17-.858-.868-1.91-1.302-3.153-1.302-1.244 0-2.3.434-3.17 1.303-.868.868-1.302 1.925-1.302 3.169 0 1.243.434 2.294 1.303 3.152.869.858 1.925 1.287 3.169 1.287 1.115 0 2.08-.354 2.895-1.061l.193.193v.546l2.669 2.669c-.194.078-.4.117-.618.117H4.764c-.465 0-.875-.178-1.23-.534-.356-.355-.534-.765-.534-1.23V5.527c0-.465.178-.875.533-1.23.356-.356.766-.533 1.23-.533h3.651a2.74 2.74 0 0 1 .943-1.272A2.46 2.46 0 0 1 10.875 2c.574 0 1.08.164 1.518.492.437.328.752.752.943 1.272h3.65c.465 0 .875.177 1.23.533.356.355.534.765.534 1.23V17.75c0 .218-.039.423-.117.617zM11.49 4.01a.835.835 0 0 0-.615-.246.835.835 0 0 0-.615.246.835.835 0 0 0-.246.615c0 .246.082.458.246.636.164.177.369.266.615.266a.802.802 0 0 0 .615-.266.905.905 0 0 0 .246-.636.835.835 0 0 0-.246-.615zM9.66 14.798c-.601-.6-.902-1.33-.902-2.187 0-.858.3-1.588.901-2.188.6-.6 1.33-.901 2.188-.901.858 0 1.587.3 2.188.9.6.601.9 1.33.9 2.189 0 .857-.3 1.587-.9 2.187-.601.6-1.33.901-2.188.901-.858 0-1.587-.3-2.188-.9z" fill="currentColor" /></svg>