<svg width="20" height="21" xmlns="http://www.w3.org/2000/svg"><path d="M13.824 12c.768 0 1.605.104 2.511.313a8.409 8.409 0 0 1 2.512 1.015c.769.469 1.153 1.003 1.153 1.602V17h-5.27v-2.07c0-1.146-.577-2.11-1.73-2.89a6.56 6.56 0 0 1 .824-.04zm-9.252.313C5.455 12.104 6.27 12 7.02 12c.75 0 1.565.104 2.448.313a7.829 7.829 0 0 1 2.428 1.015c.736.469 1.104 1.003 1.104 1.602V17H1v-2.07c0-.6.375-1.133 1.124-1.602a8.08 8.08 0 0 1 2.448-1.015zm3.68-3.055A2.303 2.303 0 0 1 6.52 10c-.683 0-1.273-.247-1.772-.742C4.249 8.763 4 8.178 4 7.5c0-.677.25-1.263.748-1.758C5.247 5.247 5.838 5 6.52 5c.682 0 1.266.247 1.752.742C8.757 6.237 9 6.822 9 7.5c0 .677-.25 1.263-.748 1.758zm7.006 0c-.495.495-1.08.742-1.758.742-.677 0-1.263-.247-1.758-.742C11.247 8.763 11 8.178 11 7.5c0-.677.247-1.263.742-1.758C12.237 5.247 12.822 5 13.5 5c.677 0 1.263.247 1.758.742.495.495.742 1.08.742 1.758 0 .677-.247 1.263-.742 1.758z" fill="currentColor" fill-rule="nonzero"/></svg>